<?xml version="1.0" encoding="UTF-8"?>
<svg id="_레이어_1" data-name="레이어 1" xmlns="http://www.w3.org/2000/svg" viewBox="0 0 128 128">
  <defs>
    <style>
      .cls-1 {
        fill: #242831;
      }

      .cls-2 {
        fill: #7d818c;
      }

      .cls-3 {
        fill: #656774;
      }

      .cls-4 {
        fill: none;
      }

      .cls-5 {
        fill: #d1d1d7;
      }

      .cls-6 {
        fill: #d3d3d9;
      }

      .cls-7 {
        fill: #d3d3d8;
      }

      .cls-8 {
        fill: #222630;
      }

      .cls-9 {
        fill: #b8b8c1;
      }

      .cls-10 {
        fill: #8d919c;
      }

      .cls-11 {
        fill: #fefefe;
      }

      .cls-12 {
        fill: #f3b1c7;
      }

      .cls-13 {
        fill: #f97ca6;
      }
    </style>
  </defs>
  <polygon class="cls-4" points="100.3 85.35 100.3 89.62 104.58 89.62 104.58 85.35 104.58 81.08 100.3 81.08 100.3 85.35"/>
  <path class="cls-7" d="M83.22,106.7v-4.27h-4.27v-4.27h-4.27v-4.27h4.27v-4.27h4.27v-4.27h8.54v-4.27h4.27v-12.81h-4.27v4.27h-8.54v-4.27h-8.54v-4.27h-7.34v4.27h-2.4v3.37h3.57v-2.39h3.74v3.29h-3.74v12.81h-1.17v.9h-6.67v-.9h-1.17v-13.72h3.57v-3.37h-2.4v-4.27h-7.34v4.27h-8.54v4.27h-8.54v-4.27h-4.27v12.81h4.27v4.27h12.81v8.54h4.27v4.27h-4.27v12.81h4.27v4.27h21.36v-4.27h4.27v-4.27h4.27ZM57.59,72.53h-1.87v-3.29h3.74v3.29h-1.87Z"/>
  <rect class="cls-13" x="61.86" y="81.08" width="4.27" height="4.27"/>
  <polygon class="cls-7" points="66.14 81.08 66.14 85.35 66.16 85.35 66.16 81.08 66.16 76.8 66.16 72.53 66.14 72.53 66.14 76.8 66.14 81.08"/>
  <polygon class="cls-12" points="61.86 72.53 61.86 76.8 61.86 81.08 66.14 81.08 66.14 76.8 66.14 72.53 64.94 72.53 63.06 72.53 61.86 72.53"/>
  <rect class="cls-5" x="44.78" y="102.43" width="4.27" height="4.27"/>
  <rect class="cls-6" x="44.78" y="85.35" width="4.27" height="4.27"/>
  <polygon class="cls-8" points="78.95 68.26 83.22 68.26 83.22 63.99 83.22 59.72 78.95 59.72 78.95 55.45 74.68 55.45 74.68 59.72 74.68 63.99 74.68 68.26 78.95 68.26"/>
  <polygon class="cls-8" points="49.05 68.26 53.32 68.26 53.32 63.99 53.32 59.72 49.05 59.72 49.05 55.45 44.78 55.45 44.78 59.72 44.78 63.99 44.78 68.26 49.05 68.26"/>
  <polygon class="cls-2" points="27.7 98.16 27.7 102.43 31.97 102.43 31.97 98.16 31.97 93.89 36.24 93.89 36.24 89.62 31.97 89.62 27.7 89.62 27.7 93.89 27.7 98.16"/>
  <rect class="cls-2" x="87.49" y="110.97" width="4.27" height="4.27"/>
  <rect class="cls-2" x="36.24" y="110.97" width="4.27" height="4.27"/>
  <polygon class="cls-2" points="36.24 106.7 36.24 102.43 31.97 102.43 31.97 106.7 31.97 110.97 36.24 110.97 36.24 106.7"/>
  <polygon class="cls-2" points="96.03 102.43 91.76 102.43 91.76 106.7 91.76 110.97 96.03 110.97 96.03 106.7 96.03 102.43"/>
  <rect class="cls-2" x="108.85" y="98.16" width="4.27" height="4.27"/>
  <rect class="cls-2" x="104.58" y="93.89" width="4.27" height="4.27"/>
  <polygon class="cls-2" points="91.76 89.62 91.76 93.89 96.03 93.89 96.03 98.16 96.03 102.43 100.3 102.43 100.3 98.16 100.3 93.89 100.3 89.62 96.03 89.62 91.76 89.62"/>
  <rect class="cls-2" x="113.12" y="85.35" width="4.27" height="4.27"/>
  <rect class="cls-2" x="61.86" y="59.72" width="4.27" height="4.27"/>
  <rect class="cls-2" x="83.22" y="34.09" width="4.27" height="4.27"/>
  <rect class="cls-2" x="40.51" y="34.09" width="4.27" height="4.27"/>
  <polygon class="cls-13" points="83.22 72.53 87.49 72.53 91.76 72.53 91.76 68.26 91.76 63.99 87.49 63.99 83.22 63.99 83.22 68.26 83.22 72.53"/>
  <polygon class="cls-13" points="40.51 72.53 44.78 72.53 44.78 68.26 44.78 63.99 40.51 63.99 36.24 63.99 36.24 68.26 36.24 72.53 40.51 72.53"/>
  <polygon class="cls-13" points="96.03 42.64 100.3 42.64 100.3 38.36 104.58 38.36 104.58 34.09 104.58 29.82 104.58 25.55 100.3 25.55 96.03 25.55 96.03 29.82 96.03 34.09 91.76 34.09 91.76 38.36 91.76 42.64 91.76 46.91 96.03 46.91 96.03 42.64"/>
  <polygon class="cls-13" points="36.24 38.36 36.24 34.09 31.97 34.09 31.97 29.82 31.97 25.55 27.7 25.55 23.43 25.55 23.43 29.82 23.43 34.09 23.43 38.36 27.7 38.36 27.7 42.64 31.97 42.64 31.97 46.91 36.24 46.91 36.24 42.64 36.24 38.36"/>
  <polygon class="cls-12" points="31.97 46.91 31.97 42.64 27.7 42.64 27.7 38.36 23.43 38.36 23.43 34.09 23.43 29.82 23.43 25.55 19.15 25.55 19.15 29.82 19.15 34.09 19.15 38.36 19.15 42.64 23.43 42.64 23.43 46.91 27.7 46.91 31.97 46.91"/>
  <polygon class="cls-12" points="104.58 29.82 104.58 34.09 104.58 38.36 100.3 38.36 100.3 42.64 96.03 42.64 96.03 46.91 100.3 46.91 104.58 46.91 104.58 42.64 108.85 42.64 108.85 38.36 108.85 34.09 108.85 29.82 108.85 25.55 104.58 25.55 104.58 29.82"/>
  <polygon class="cls-10" points="78.95 110.97 78.95 115.24 83.22 115.24 87.49 115.24 87.49 110.97 83.22 110.97 78.95 110.97"/>
  <polygon class="cls-10" points="40.51 110.97 40.51 115.24 44.78 115.24 49.05 115.24 49.05 110.97 44.78 110.97 40.51 110.97"/>
  <polygon class="cls-10" points="44.78 106.7 44.78 102.43 44.78 98.16 40.51 98.16 40.51 93.89 44.78 93.89 44.78 98.16 49.05 98.16 49.05 93.89 49.05 89.62 44.78 89.62 44.78 85.35 40.51 85.35 36.24 85.35 36.24 89.62 36.24 93.89 31.97 93.89 31.97 98.16 31.97 102.43 36.24 102.43 36.24 106.7 40.51 106.7 44.78 106.7"/>
  <rect class="cls-10" x="104.58" y="98.16" width="4.27" height="4.27"/>
  <polygon class="cls-10" points="96.03 93.89 91.76 93.89 91.76 89.62 91.76 85.35 87.49 85.35 83.22 85.35 83.22 89.62 78.95 89.62 78.95 93.89 78.95 98.16 83.22 98.16 83.22 93.89 87.49 93.89 87.49 98.16 83.22 98.16 83.22 102.43 83.22 106.7 87.49 106.7 91.76 106.7 91.76 102.43 96.03 102.43 96.03 98.16 96.03 93.89"/>
  <polygon class="cls-10" points="117.39 89.62 113.12 89.62 113.12 85.35 108.85 85.35 108.85 89.62 108.85 93.89 108.85 98.16 113.12 98.16 117.39 98.16 117.39 93.89 121.66 93.89 121.66 89.62 117.39 89.62"/>
  <polygon class="cls-10" points="113.12 85.35 117.39 85.35 121.66 85.35 121.66 81.08 121.66 76.8 117.39 76.8 113.12 76.8 113.12 81.08 113.12 85.35"/>
  <polygon class="cls-10" points="31.97 76.8 31.97 72.53 31.97 68.26 36.24 68.26 36.24 63.99 40.51 63.99 44.78 63.99 44.78 59.72 44.78 55.45 49.05 55.45 53.32 55.45 53.32 59.72 53.32 63.99 57.59 63.99 60.66 63.99 61.86 63.99 61.86 59.72 66.14 59.72 66.14 63.99 67.34 63.99 70.41 63.99 74.68 63.99 74.68 59.72 74.68 55.45 78.95 55.45 83.22 55.45 83.22 59.72 83.22 63.99 87.49 63.99 91.76 63.99 91.76 68.26 96.03 68.26 96.03 72.53 96.03 76.8 96.03 81.08 100.3 81.08 100.3 76.8 100.3 72.53 100.3 68.26 100.3 63.99 100.3 59.72 96.03 59.72 96.03 55.45 96.03 51.18 91.76 51.18 91.76 46.91 87.49 46.91 87.49 42.64 83.22 42.64 83.22 38.36 78.95 38.36 78.95 34.09 74.68 34.09 70.41 34.09 66.14 34.09 61.86 34.09 57.59 34.09 53.32 34.09 49.05 34.09 49.05 38.36 44.78 38.36 44.78 42.64 40.51 42.64 40.51 46.91 36.24 46.91 36.24 51.18 31.97 51.18 31.97 55.45 31.97 59.72 27.7 59.72 27.7 63.99 27.7 68.26 27.7 72.53 27.7 76.8 27.7 81.08 31.97 81.08 31.97 76.8"/>
  <polygon class="cls-10" points="87.49 34.09 87.49 38.36 87.49 42.64 91.76 42.64 91.76 38.36 91.76 34.09 96.03 34.09 96.03 29.82 96.03 25.55 100.3 25.55 104.58 25.55 104.58 21.28 100.3 21.28 96.03 21.28 91.76 21.28 91.76 25.55 87.49 25.55 87.49 29.82 87.49 34.09"/>
  <polygon class="cls-10" points="27.7 25.55 31.97 25.55 31.97 29.82 31.97 34.09 36.24 34.09 36.24 38.36 36.24 42.64 40.51 42.64 40.51 38.36 40.51 34.09 40.51 29.82 40.51 25.55 36.24 25.55 36.24 21.28 31.97 21.28 27.7 21.28 23.43 21.28 23.43 25.55 27.7 25.55"/>
  <polygon class="cls-1" points="83.22 115.24 78.95 115.24 78.95 110.97 74.68 110.97 74.68 115.24 70.41 115.24 66.14 115.24 61.86 115.24 57.59 115.24 53.32 115.24 53.32 110.97 49.05 110.97 49.05 115.24 44.78 115.24 40.51 115.24 36.24 115.24 36.24 119.52 40.51 119.52 44.78 119.52 49.05 119.52 53.32 119.52 57.59 119.52 61.86 119.52 66.14 119.52 70.41 119.52 74.68 119.52 78.95 119.52 83.22 119.52 87.49 119.52 91.76 119.52 91.76 115.24 87.49 115.24 83.22 115.24"/>
  <rect class="cls-1" x="91.76" y="110.97" width="4.27" height="4.27"/>
  <rect class="cls-1" x="31.97" y="110.97" width="4.27" height="4.27"/>
  <rect class="cls-1" x="96.03" y="106.7" width="4.27" height="4.27"/>
  <polygon class="cls-1" points="83.22 106.7 78.95 106.7 78.95 110.97 83.22 110.97 87.49 110.97 87.49 106.7 83.22 106.7"/>
  <polygon class="cls-1" points="44.78 106.7 40.51 106.7 40.51 110.97 44.78 110.97 49.05 110.97 49.05 106.7 44.78 106.7"/>
  <rect class="cls-1" x="27.7" y="106.7" width="4.27" height="4.27"/>
  <polygon class="cls-1" points="104.58 102.43 104.58 98.16 104.58 93.89 104.58 89.62 100.3 89.62 100.3 93.89 100.3 98.16 100.3 102.43 100.3 106.7 104.58 106.7 108.85 106.7 113.12 106.7 113.12 102.43 108.85 102.43 104.58 102.43"/>
  <rect class="cls-1" x="113.12" y="98.16" width="4.27" height="4.27"/>
  <rect class="cls-1" x="78.95" y="98.16" width="4.27" height="4.27"/>
  <rect class="cls-1" x="44.78" y="98.16" width="4.27" height="4.27"/>
  <polygon class="cls-1" points="27.7 98.16 27.7 93.89 27.7 89.62 23.43 89.62 23.43 93.89 23.43 98.16 23.43 102.43 23.43 106.7 27.7 106.7 27.7 102.43 27.7 98.16"/>
  <rect class="cls-1" x="117.39" y="93.89" width="4.27" height="4.27"/>
  <rect class="cls-1" x="83.22" y="93.89" width="4.27" height="4.27"/>
  <rect class="cls-1" x="74.68" y="93.89" width="4.27" height="4.27"/>
  <rect class="cls-1" x="49.05" y="93.89" width="4.27" height="4.27"/>
  <rect class="cls-1" x="40.51" y="93.89" width="4.27" height="4.27"/>
  <polygon class="cls-1" points="104.58 89.62 108.85 89.62 108.85 85.35 108.85 81.08 104.58 81.08 104.58 85.35 104.58 89.62"/>
  <polygon class="cls-1" points="31.97 85.35 31.97 81.08 27.7 81.08 27.7 85.35 27.7 89.62 31.97 89.62 31.97 85.35"/>
  <polygon class="cls-1" points="100.3 81.08 96.03 81.08 96.03 85.35 96.03 89.62 100.3 89.62 100.3 85.35 100.3 81.08"/>
  <polygon class="cls-1" points="121.66 81.08 121.66 85.35 121.66 89.62 121.66 93.89 125.93 93.89 125.93 89.62 125.93 85.35 125.93 81.08 125.93 76.8 121.66 76.8 121.66 81.08"/>
  <rect class="cls-1" x="108.85" y="76.8" width="4.27" height="4.27"/>
  <polygon class="cls-1" points="121.66 76.8 121.66 72.53 117.39 72.53 113.12 72.53 113.12 76.8 117.39 76.8 121.66 76.8"/>
  <polygon class="cls-1" points="100.3 68.26 100.3 72.53 100.3 76.8 100.3 81.08 104.58 81.08 104.58 76.8 104.58 72.53 104.58 68.26 104.58 63.99 104.58 59.72 100.3 59.72 100.3 63.99 100.3 68.26"/>
  <polygon class="cls-1" points="27.7 72.53 27.7 68.26 27.7 63.99 27.7 59.72 23.43 59.72 23.43 63.99 23.43 68.26 23.43 72.53 23.43 76.8 23.43 81.08 27.7 81.08 27.7 76.8 27.7 72.53"/>
  <polygon class="cls-1" points="31.97 55.45 31.97 51.18 36.24 51.18 36.24 46.91 31.97 46.91 27.7 46.91 23.43 46.91 23.43 51.18 27.7 51.18 27.7 55.45 27.7 59.72 31.97 59.72 31.97 55.45"/>
  <polygon class="cls-1" points="96.03 46.91 91.76 46.91 91.76 51.18 96.03 51.18 96.03 55.45 96.03 59.72 100.3 59.72 100.3 55.45 100.3 51.18 104.58 51.18 104.58 46.91 100.3 46.91 96.03 46.91"/>
  <rect class="cls-1" x="104.58" y="42.64" width="4.27" height="4.27"/>
  <rect class="cls-1" x="87.49" y="42.64" width="4.27" height="4.27"/>
  <rect class="cls-1" x="36.24" y="42.64" width="4.27" height="4.27"/>
  <rect class="cls-1" x="19.15" y="42.64" width="4.27" height="4.27"/>
  <rect class="cls-1" x="83.22" y="38.36" width="4.27" height="4.27"/>
  <rect class="cls-1" x="40.51" y="38.36" width="4.27" height="4.27"/>
  <rect class="cls-1" x="78.95" y="34.09" width="4.27" height="4.27"/>
  <rect class="cls-1" x="44.78" y="34.09" width="4.27" height="4.27"/>
  <polygon class="cls-1" points="19.15 34.09 19.15 29.82 19.15 25.55 14.88 25.55 14.88 29.82 14.88 34.09 14.88 38.36 14.88 42.64 19.15 42.64 19.15 38.36 19.15 34.09"/>
  <polygon class="cls-1" points="108.85 34.09 108.85 38.36 108.85 42.64 113.12 42.64 113.12 38.36 113.12 34.09 113.12 29.82 113.12 25.55 108.85 25.55 108.85 29.82 108.85 34.09"/>
  <polygon class="cls-1" points="87.49 29.82 87.49 25.55 83.22 25.55 83.22 29.82 83.22 34.09 87.49 34.09 87.49 29.82"/>
  <polygon class="cls-1" points="57.59 34.09 61.86 34.09 66.14 34.09 70.41 34.09 74.68 34.09 78.95 34.09 78.95 29.82 74.68 29.82 70.41 29.82 66.14 29.82 61.86 29.82 57.59 29.82 53.32 29.82 49.05 29.82 49.05 34.09 53.32 34.09 57.59 34.09"/>
  <polygon class="cls-1" points="40.51 34.09 44.78 34.09 44.78 29.82 44.78 25.55 40.51 25.55 40.51 29.82 40.51 34.09"/>
  <rect class="cls-1" x="104.58" y="21.28" width="4.27" height="4.27"/>
  <rect class="cls-1" x="87.49" y="21.28" width="4.27" height="4.27"/>
  <rect class="cls-1" x="36.24" y="21.28" width="4.27" height="4.27"/>
  <rect class="cls-1" x="19.15" y="21.28" width="4.27" height="4.27"/>
  <polygon class="cls-1" points="100.3 21.28 104.58 21.28 104.58 17.01 100.3 17.01 96.03 17.01 91.76 17.01 91.76 21.28 96.03 21.28 100.3 21.28"/>
  <polygon class="cls-1" points="31.97 21.28 36.24 21.28 36.24 17.01 31.97 17.01 27.7 17.01 23.43 17.01 23.43 21.28 27.7 21.28 31.97 21.28"/>
  <path class="cls-8" d="M61.86,68.26h1.2v3.37h-3.57v13.72h1.17v.9h6.67v-.9h1.17v-12.81h3.74v-3.29h-3.74v2.39h-3.57v-3.37h2.4v-4.27h-6.68v4.27h1.2ZM66.14,72.53h.03v12.81h-4.3v-12.81h4.27ZM62.21,64.87h3.58v.69h-3.58v-.69Z"/>
  <polygon class="cls-8" points="55.72 69.24 55.72 72.53 57.59 72.53 59.46 72.53 59.46 69.24 55.72 69.24"/>
  <rect class="cls-9" x="91.76" y="81.08" width="4.27" height="4.27"/>
  <rect class="cls-9" x="31.97" y="81.08" width="4.27" height="4.27"/>
  <rect class="cls-11" x="78.95" y="55.45" width="4.27" height="4.27"/>
  <rect class="cls-11" x="49.05" y="55.45" width="4.27" height="4.27"/>
  <rect class="cls-11" x="62.21" y="64.87" width="3.58" height=".69"/>
  <rect class="cls-3" x="104.58" y="89.62" width="4.27" height="4.27"/>
  <rect class="cls-3" x="117.39" y="85.35" width="4.27" height="4.27"/>
  <rect class="cls-3" x="108.85" y="81.08" width="4.27" height="4.27"/>
  <rect class="cls-3" x="87.49" y="106.7" width="4.27" height="4.27"/>
  <rect class="cls-3" x="36.24" y="106.7" width="4.27" height="4.27"/>
  <rect class="cls-3" x="91.76" y="85.35" width="4.27" height="4.27"/>
  <rect class="cls-3" x="31.97" y="85.35" width="4.27" height="4.27"/>
  <rect class="cls-3" x="96.03" y="102.43" width="4.27" height="4.27"/>
  <rect class="cls-3" x="27.7" y="102.43" width="4.27" height="4.27"/>
</svg>