<?xml version="1.0" encoding="UTF-8"?>
<svg id="_레이어_1" data-name="레이어 1" xmlns="http://www.w3.org/2000/svg" viewBox="0 0 128 128">
  <defs>
    <style>
      .cls-1 {
        fill: #242831;
      }

      .cls-2 {
        fill: #7d818c;
      }

      .cls-3 {
        fill: #656774;
      }

      .cls-4 {
        fill: none;
      }

      .cls-5 {
        fill: #d1d1d7;
      }

      .cls-6 {
        fill: #d3d3d9;
      }

      .cls-7 {
        fill: #d3d3d8;
      }

      .cls-8 {
        fill: #222630;
      }

      .cls-9 {
        fill: #b8b8c1;
      }

      .cls-10 {
        fill: #8d919c;
      }

      .cls-11 {
        fill: #fefefe;
      }

      .cls-12 {
        fill: #f97ca6;
      }
    </style>
  </defs>
  <polygon class="cls-4" points="100.3 81.08 100.3 85.35 104.58 85.35 104.58 81.08 104.58 76.8 100.3 76.8 100.3 81.08"/>
  <path class="cls-7" d="M87.49,76.8h-4.27v-4.27h-8.54v-4.27h-7.34v4.27h-2.4v4.27h3.57v-3.29h3.74v3.29h-3.74v4.27h-3.57v-4.27h-1.87v4.27h-3.57v-4.27h3.57v-4.27h-2.4v-4.27h-7.34v4.27h-8.54v4.27h-8.54v4.27h12.81v8.54h4.27v4.27h-4.27v12.81h-4.27v4.27h38.44v-12.81h-4.27v-4.27h-4.27v-4.27h4.27v-4.27h4.27v-4.27h8.54v-4.27h-4.27ZM57.59,76.8h-1.87v-3.29h3.74v3.29h-1.87Z"/>
  <rect class="cls-7" x="91.76" y="72.53" width="4.27" height="4.27"/>
  <rect class="cls-7" x="31.97" y="72.53" width="4.27" height="4.27"/>
  <rect class="cls-6" x="44.78" y="81.08" width="4.27" height="4.27"/>
  <polygon class="cls-8" points="78.95 72.53 83.22 72.53 83.22 68.26 83.22 63.99 78.95 63.99 78.95 59.72 74.68 59.72 74.68 63.99 74.68 68.26 74.68 72.53 78.95 72.53"/>
  <polygon class="cls-8" points="49.05 72.53 53.32 72.53 53.32 68.26 53.32 63.99 49.05 63.99 49.05 59.72 44.78 59.72 44.78 63.99 44.78 68.26 44.78 72.53 49.05 72.53"/>
  <polygon class="cls-2" points="27.7 93.89 27.7 98.16 31.97 98.16 31.97 93.89 31.97 89.62 36.24 89.62 36.24 85.35 31.97 85.35 27.7 85.35 27.7 89.62 27.7 93.89"/>
  <polygon class="cls-2" points="91.76 102.43 91.76 106.7 96.03 106.7 96.03 102.43 96.03 98.16 91.76 98.16 91.76 102.43"/>
  <rect class="cls-2" x="108.85" y="93.89" width="4.27" height="4.27"/>
  <rect class="cls-2" x="104.58" y="89.62" width="4.27" height="4.27"/>
  <polygon class="cls-2" points="91.76 85.35 91.76 89.62 96.03 89.62 96.03 93.89 96.03 98.16 100.3 98.16 100.3 93.89 100.3 89.62 100.3 85.35 96.03 85.35 91.76 85.35"/>
  <rect class="cls-2" x="113.12" y="81.08" width="4.27" height="4.27"/>
  <rect class="cls-2" x="61.86" y="63.99" width="4.27" height="4.27"/>
  <polygon class="cls-2" points="31.97 42.64 36.24 42.64 36.24 46.91 40.51 46.91 40.51 42.64 44.78 42.64 44.78 38.36 49.05 38.36 49.05 34.09 44.78 34.09 40.51 34.09 36.24 34.09 36.24 38.36 31.97 38.36 27.7 38.36 27.7 42.64 31.97 42.64"/>
  <polygon class="cls-12" points="83.22 76.8 87.49 76.8 91.76 76.8 91.76 72.53 91.76 68.26 87.49 68.26 83.22 68.26 83.22 72.53 83.22 76.8"/>
  <polygon class="cls-12" points="40.51 76.8 44.78 76.8 44.78 72.53 44.78 68.26 40.51 68.26 36.24 68.26 36.24 72.53 36.24 76.8 40.51 76.8"/>
  <polygon class="cls-10" points="27.7 55.45 27.7 51.18 31.97 51.18 36.24 51.18 36.24 46.91 36.24 42.64 31.97 42.64 27.7 42.64 23.43 42.64 23.43 46.91 19.15 46.91 19.15 51.18 19.15 55.45 23.43 55.45 27.7 55.45"/>
  <rect class="cls-10" x="104.58" y="93.89" width="4.27" height="4.27"/>
  <polygon class="cls-10" points="117.39 85.35 113.12 85.35 113.12 81.08 108.85 81.08 108.85 85.35 108.85 89.62 108.85 93.89 113.12 93.89 117.39 93.89 117.39 89.62 121.66 89.62 121.66 85.35 117.39 85.35"/>
  <polygon class="cls-10" points="113.12 81.08 117.39 81.08 121.66 81.08 121.66 76.8 121.66 72.53 117.39 72.53 113.12 72.53 113.12 76.8 113.12 81.08"/>
  <polygon class="cls-10" points="31.97 72.53 36.24 72.53 36.24 68.26 40.51 68.26 44.78 68.26 44.78 63.99 44.78 59.72 49.05 59.72 53.32 59.72 53.32 63.99 53.32 68.26 57.59 68.26 60.66 68.26 61.86 68.26 61.86 63.99 66.14 63.99 66.14 68.26 67.34 68.26 70.41 68.26 74.68 68.26 74.68 63.99 74.68 59.72 78.95 59.72 83.22 59.72 83.22 63.99 83.22 68.26 87.49 68.26 91.76 68.26 91.76 72.53 96.03 72.53 96.03 76.8 100.3 76.8 100.3 72.53 100.3 68.26 100.3 63.99 96.03 63.99 96.03 59.72 96.03 55.45 91.76 55.45 91.76 51.18 87.49 51.18 87.49 46.91 83.22 46.91 83.22 42.64 78.95 42.64 78.95 38.36 74.68 38.36 70.41 38.36 66.14 38.36 61.86 38.36 57.59 38.36 53.32 38.36 49.05 38.36 49.05 42.64 44.78 42.64 44.78 46.91 40.51 46.91 40.51 51.18 36.24 51.18 36.24 55.45 31.97 55.45 31.97 59.72 31.97 63.99 27.7 63.99 27.7 68.26 27.7 72.53 27.7 76.8 31.97 76.8 31.97 72.53"/>
  <rect class="cls-1" x="87.49" y="110.97" width="4.27" height="4.27"/>
  <polygon class="cls-1" points="74.68 110.97 70.41 110.97 66.14 110.97 61.86 110.97 57.59 110.97 53.32 110.97 49.05 110.97 49.05 115.24 53.32 115.24 57.59 115.24 61.86 115.24 66.14 115.24 70.41 115.24 74.68 115.24 78.95 115.24 78.95 110.97 74.68 110.97"/>
  <polygon class="cls-10" points="44.78 110.97 44.78 106.7 44.78 102.43 44.78 98.16 44.78 93.89 40.51 93.89 40.51 89.62 44.78 89.62 44.78 93.89 49.05 93.89 49.05 89.62 49.05 85.35 44.78 85.35 44.78 81.08 40.51 81.08 36.24 81.08 36.24 85.35 36.24 89.62 31.97 89.62 31.97 93.89 31.97 98.16 36.24 98.16 36.24 102.43 36.24 106.7 40.51 106.7 40.51 110.97 40.51 115.24 44.78 115.24 49.05 115.24 49.05 110.97 44.78 110.97"/>
  <rect class="cls-1" x="36.24" y="110.97" width="4.27" height="4.27"/>
  <polygon class="cls-1" points="78.95 115.24 78.95 119.52 83.22 119.52 87.49 119.52 87.49 115.24 83.22 115.24 78.95 115.24"/>
  <polygon class="cls-1" points="40.51 115.24 40.51 119.52 44.78 119.52 49.05 119.52 49.05 115.24 44.78 115.24 40.51 115.24"/>
  <polygon class="cls-1" points="104.58 98.16 104.58 93.89 104.58 89.62 104.58 85.35 100.3 85.35 100.3 89.62 100.3 93.89 100.3 98.16 100.3 102.43 100.3 106.7 104.58 106.7 104.58 102.43 108.85 102.43 113.12 102.43 113.12 98.16 108.85 98.16 104.58 98.16"/>
  <polygon class="cls-1" points="27.7 98.16 27.7 93.89 27.7 89.62 27.7 85.35 23.43 85.35 23.43 89.62 23.43 93.89 23.43 98.16 23.43 102.43 23.43 106.7 27.7 106.7 27.7 102.43 27.7 98.16"/>
  <rect class="cls-1" x="113.12" y="93.89" width="4.27" height="4.27"/>
  <rect class="cls-1" x="78.95" y="93.89" width="4.27" height="4.27"/>
  <rect class="cls-1" x="44.78" y="93.89" width="4.27" height="4.27"/>
  <rect class="cls-1" x="117.39" y="89.62" width="4.27" height="4.27"/>
  <rect class="cls-1" x="83.22" y="89.62" width="4.27" height="4.27"/>
  <rect class="cls-1" x="74.68" y="89.62" width="4.27" height="4.27"/>
  <rect class="cls-1" x="49.05" y="89.62" width="4.27" height="4.27"/>
  <rect class="cls-1" x="40.51" y="89.62" width="4.27" height="4.27"/>
  <polygon class="cls-1" points="104.58 85.35 108.85 85.35 108.85 81.08 108.85 76.8 104.58 76.8 104.58 81.08 104.58 85.35"/>
  <polygon class="cls-1" points="31.97 81.08 31.97 76.8 27.7 76.8 27.7 81.08 27.7 85.35 31.97 85.35 31.97 81.08"/>
  <polygon class="cls-1" points="100.3 76.8 96.03 76.8 96.03 81.08 96.03 85.35 100.3 85.35 100.3 81.08 100.3 76.8"/>
  <polygon class="cls-1" points="121.66 76.8 121.66 81.08 121.66 85.35 121.66 89.62 125.93 89.62 125.93 85.35 125.93 81.08 125.93 76.8 125.93 72.53 121.66 72.53 121.66 76.8"/>
  <rect class="cls-1" x="108.85" y="72.53" width="4.27" height="4.27"/>
  <polygon class="cls-1" points="121.66 72.53 121.66 68.26 117.39 68.26 113.12 68.26 113.12 72.53 117.39 72.53 121.66 72.53"/>
  <polygon class="cls-1" points="100.3 72.53 100.3 76.8 104.58 76.8 104.58 72.53 104.58 68.26 104.58 63.99 100.3 63.99 100.3 68.26 100.3 72.53"/>
  <polygon class="cls-1" points="27.7 68.26 27.7 63.99 23.43 63.99 23.43 68.26 23.43 72.53 23.43 76.8 27.7 76.8 27.7 72.53 27.7 68.26"/>
  <polygon class="cls-1" points="31.97 59.72 31.97 55.45 36.24 55.45 36.24 51.18 31.97 51.18 27.7 51.18 27.7 55.45 23.43 55.45 19.15 55.45 19.15 59.72 23.43 59.72 27.7 59.72 27.7 63.99 31.97 63.99 31.97 59.72"/>
  <rect class="cls-1" x="87.49" y="46.91" width="4.27" height="4.27"/>
  <rect class="cls-1" x="36.24" y="46.91" width="4.27" height="4.27"/>
  <rect class="cls-1" x="83.22" y="42.64" width="4.27" height="4.27"/>
  <rect class="cls-1" x="40.51" y="42.64" width="4.27" height="4.27"/>
  <rect class="cls-1" x="78.95" y="38.36" width="4.27" height="4.27"/>
  <rect class="cls-1" x="44.78" y="38.36" width="4.27" height="4.27"/>
  <polygon class="cls-1" points="53.32 38.36 57.59 38.36 61.86 38.36 66.14 38.36 70.41 38.36 74.68 38.36 78.95 38.36 78.95 34.09 74.68 34.09 70.41 34.09 66.14 34.09 61.86 34.09 57.59 34.09 53.32 34.09 49.05 34.09 49.05 38.36 53.32 38.36"/>
  <polygon class="cls-1" points="44.78 34.09 49.05 34.09 49.05 29.82 44.78 29.82 40.51 29.82 36.24 29.82 36.24 34.09 40.51 34.09 44.78 34.09"/>
  <polygon class="cls-1" points="36.24 38.36 36.24 34.09 31.97 34.09 27.7 34.09 27.7 38.36 31.97 38.36 36.24 38.36"/>
  <rect class="cls-1" x="23.43" y="38.36" width="4.27" height="4.27"/>
  <rect class="cls-1" x="19.15" y="42.64" width="4.27" height="4.27"/>
  <polygon class="cls-1" points="19.15 46.91 14.88 46.91 14.88 51.18 14.88 55.45 19.15 55.45 19.15 51.18 19.15 46.91"/>
  <polygon class="cls-2" points="83.22 38.36 83.22 42.64 87.49 42.64 87.49 46.91 91.76 46.91 91.76 42.64 96.03 42.64 100.3 42.64 100.3 38.36 96.03 38.36 91.76 38.36 91.76 34.09 87.49 34.09 83.22 34.09 78.95 34.09 78.95 38.36 83.22 38.36"/>
  <polygon class="cls-10" points="96.03 42.64 91.76 42.64 91.76 46.91 91.76 51.18 96.03 51.18 100.3 51.18 100.3 55.45 104.58 55.45 108.85 55.45 108.85 51.18 108.85 46.91 104.58 46.91 104.58 42.64 100.3 42.64 96.03 42.64"/>
  <polygon class="cls-1" points="100.3 55.45 100.3 51.18 96.03 51.18 91.76 51.18 91.76 55.45 96.03 55.45 96.03 59.72 96.03 63.99 100.3 63.99 100.3 59.72 104.58 59.72 108.85 59.72 108.85 55.45 104.58 55.45 100.3 55.45"/>
  <polygon class="cls-1" points="87.49 34.09 91.76 34.09 91.76 29.82 87.49 29.82 83.22 29.82 78.95 29.82 78.95 34.09 83.22 34.09 87.49 34.09"/>
  <polygon class="cls-1" points="96.03 38.36 100.3 38.36 100.3 34.09 96.03 34.09 91.76 34.09 91.76 38.36 96.03 38.36"/>
  <rect class="cls-1" x="100.3" y="38.36" width="4.27" height="4.27"/>
  <rect class="cls-1" x="104.58" y="42.64" width="4.27" height="4.27"/>
  <polygon class="cls-1" points="108.85 55.45 113.12 55.45 113.12 51.18 113.12 46.91 108.85 46.91 108.85 51.18 108.85 55.45"/>
  <polygon class="cls-8" points="59.49 76.8 59.49 81.08 61.86 81.08 63.06 81.08 63.06 76.8 61.86 76.8 59.49 76.8"/>
  <polygon class="cls-8" points="66.14 81.08 68.51 81.08 68.51 76.8 66.14 76.8 64.94 76.8 64.94 81.08 66.14 81.08"/>
  <path class="cls-8" d="M61.86,72.53h1.2v4.27h1.87v-4.27h2.4v-4.27h-6.68v4.27h1.2ZM62.21,69.14h3.58v.69h-3.58v-.69Z"/>
  <polygon class="cls-8" points="72.25 76.8 72.25 73.51 68.51 73.51 68.51 76.8 70.41 76.8 72.25 76.8"/>
  <polygon class="cls-8" points="55.72 73.51 55.72 76.8 57.59 76.8 59.46 76.8 59.46 73.51 55.72 73.51"/>
  <rect class="cls-9" x="91.76" y="76.8" width="4.27" height="4.27"/>
  <rect class="cls-9" x="31.97" y="76.8" width="4.27" height="4.27"/>
  <rect class="cls-11" x="78.95" y="59.72" width="4.27" height="4.27"/>
  <rect class="cls-11" x="49.05" y="59.72" width="4.27" height="4.27"/>
  <rect class="cls-11" x="62.21" y="69.14" width="3.58" height=".69"/>
  <rect class="cls-3" x="104.58" y="85.35" width="4.27" height="4.27"/>
  <rect class="cls-3" x="117.39" y="81.08" width="4.27" height="4.27"/>
  <rect class="cls-3" x="108.85" y="76.8" width="4.27" height="4.27"/>
  <rect class="cls-3" x="91.76" y="81.08" width="4.27" height="4.27"/>
  <rect class="cls-3" x="31.97" y="81.08" width="4.27" height="4.27"/>
  <polygon class="cls-3" points="100.3 98.16 96.03 98.16 96.03 102.43 96.03 106.7 100.3 106.7 100.3 102.43 100.3 98.16"/>
  <polygon class="cls-5" points="49.05 102.43 49.05 98.16 44.78 98.16 44.78 102.43 44.78 106.7 49.05 106.7 49.05 102.43"/>
  <polygon class="cls-1" points="91.76 106.7 91.76 110.97 96.03 110.97 100.3 110.97 100.3 106.7 96.03 106.7 91.76 106.7"/>
  <polygon class="cls-1" points="31.97 106.7 27.7 106.7 27.7 110.97 31.97 110.97 36.24 110.97 36.24 106.7 31.97 106.7"/>
  <polygon class="cls-2" points="31.97 106.7 36.24 106.7 36.24 102.43 36.24 98.16 31.97 98.16 31.97 102.43 31.97 106.7"/>
  <polygon class="cls-10" points="87.49 106.7 91.76 106.7 91.76 102.43 91.76 98.16 96.03 98.16 96.03 93.89 96.03 89.62 91.76 89.62 91.76 85.35 91.76 81.08 87.49 81.08 83.22 81.08 83.22 85.35 78.95 85.35 78.95 89.62 78.95 93.89 83.22 93.89 83.22 89.62 87.49 89.62 87.49 93.89 83.22 93.89 83.22 98.16 83.22 102.43 83.22 106.7 83.22 110.97 78.95 110.97 78.95 115.24 83.22 115.24 87.49 115.24 87.49 110.97 87.49 106.7"/>
  <rect class="cls-3" x="87.49" y="106.7" width="4.27" height="4.27"/>
  <rect class="cls-3" x="36.24" y="106.7" width="4.27" height="4.27"/>
  <polygon class="cls-3" points="31.97 102.43 31.97 98.16 27.7 98.16 27.7 102.43 27.7 106.7 31.97 106.7 31.97 102.43"/>
</svg>