<?xml version="1.0" encoding="UTF-8"?>
<svg id="_레이어_1" data-name="레이어 1" xmlns="http://www.w3.org/2000/svg" viewBox="0 0 128 128">
  <defs>
    <style>
      .cls-1 {
        fill: #242831;
      }

      .cls-2 {
        fill: #7d818c;
      }

      .cls-3 {
        fill: #656774;
      }

      .cls-4 {
        fill: none;
      }

      .cls-5 {
        fill: #d1d1d7;
      }

      .cls-6 {
        fill: #d3d3d9;
      }

      .cls-7 {
        fill: #d3d3d8;
      }

      .cls-8 {
        fill: #222630;
      }

      .cls-9 {
        fill: #8d919c;
      }

      .cls-10 {
        fill: #fefefe;
      }

      .cls-11 {
        fill: #f3b1c7;
      }

      .cls-12 {
        fill: #f97ca6;
      }
    </style>
  </defs>
  <rect class="cls-4" x="100.3" y="85.35" width="4.27" height="4.27"/>
  <path class="cls-7" d="M83.22,106.7v-4.27h-4.27v-4.27h-4.27v-4.27h4.27v-4.27h4.27v-4.27h-4.27v-4.27h-14.01v4.27h3.57v-3.29h3.74v3.29h-3.74v4.27h-3.57v-4.27h-1.87v4.27h-3.57v-4.27h3.57v-4.27h-14.01v12.81h4.27v4.27h-4.27v12.81h4.27v4.27h21.36v-4.27h4.27v-4.27h4.27ZM55.72,82.06h3.74v3.29h-3.74v-3.29Z"/>
  <rect class="cls-11" x="91.76" y="81.08" width="4.27" height="4.27"/>
  <rect class="cls-11" x="78.95" y="81.08" width="4.27" height="4.27"/>
  <rect class="cls-11" x="44.78" y="81.08" width="4.27" height="4.27"/>
  <rect class="cls-11" x="31.97" y="81.08" width="4.27" height="4.27"/>
  <polygon class="cls-12" points="70.41 81.08 74.68 81.08 74.68 76.8 70.41 76.8 67.34 76.8 67.34 81.08 70.41 81.08"/>
  <polygon class="cls-12" points="57.59 81.08 60.66 81.08 60.66 76.8 57.59 76.8 53.32 76.8 53.32 81.08 57.59 81.08"/>
  <rect class="cls-5" x="44.78" y="102.43" width="4.27" height="4.27"/>
  <rect class="cls-6" x="44.78" y="85.35" width="4.27" height="4.27"/>
  <polygon class="cls-8" points="78.95 81.08 83.22 81.08 83.22 76.8 78.95 76.8 78.95 72.53 74.68 72.53 74.68 76.8 74.68 81.08 78.95 81.08"/>
  <polygon class="cls-8" points="49.05 81.08 53.32 81.08 53.32 76.8 49.05 76.8 49.05 72.53 44.78 72.53 44.78 76.8 44.78 81.08 49.05 81.08"/>
  <polygon class="cls-2" points="27.7 98.16 27.7 102.43 31.97 102.43 31.97 98.16 31.97 93.89 36.24 93.89 36.24 89.62 31.97 89.62 27.7 89.62 27.7 93.89 27.7 98.16"/>
  <rect class="cls-2" x="87.49" y="110.97" width="4.27" height="4.27"/>
  <rect class="cls-2" x="36.24" y="110.97" width="4.27" height="4.27"/>
  <polygon class="cls-2" points="36.24 106.7 36.24 102.43 31.97 102.43 31.97 106.7 31.97 110.97 36.24 110.97 36.24 106.7"/>
  <polygon class="cls-2" points="96.03 102.43 91.76 102.43 91.76 106.7 91.76 110.97 96.03 110.97 96.03 106.7 96.03 102.43"/>
  <rect class="cls-2" x="108.85" y="98.16" width="4.27" height="4.27"/>
  <rect class="cls-2" x="104.58" y="93.89" width="4.27" height="4.27"/>
  <polygon class="cls-2" points="91.76 89.62 91.76 93.89 96.03 93.89 96.03 98.16 96.03 102.43 100.3 102.43 100.3 98.16 100.3 93.89 100.3 89.62 96.03 89.62 91.76 89.62"/>
  <rect class="cls-2" x="113.12" y="85.35" width="4.27" height="4.27"/>
  <rect class="cls-2" x="61.86" y="72.53" width="4.27" height="4.27"/>
  <rect class="cls-2" x="83.22" y="46.91" width="4.27" height="4.27"/>
  <rect class="cls-2" x="40.51" y="46.91" width="4.27" height="4.27"/>
  <polygon class="cls-12" points="83.22 85.35 87.49 85.35 91.76 85.35 91.76 81.08 91.76 76.8 87.49 76.8 83.22 76.8 83.22 81.08 83.22 85.35"/>
  <polygon class="cls-12" points="40.51 85.35 44.78 85.35 44.78 81.08 44.78 76.8 40.51 76.8 36.24 76.8 36.24 81.08 36.24 85.35 40.51 85.35"/>
  <polygon class="cls-12" points="96.03 55.45 100.3 55.45 100.3 51.18 104.58 51.18 104.58 46.91 104.58 42.64 100.3 42.64 96.03 42.64 96.03 46.91 91.76 46.91 91.76 51.18 91.76 55.45 91.76 59.72 96.03 59.72 96.03 55.45"/>
  <polygon class="cls-12" points="36.24 51.18 36.24 46.91 31.97 46.91 31.97 42.64 27.7 42.64 23.43 42.64 23.43 46.91 23.43 51.18 27.7 51.18 27.7 55.45 31.97 55.45 31.97 59.72 36.24 59.72 36.24 55.45 36.24 51.18"/>
  <polygon class="cls-11" points="31.97 59.72 31.97 55.45 27.7 55.45 27.7 51.18 23.43 51.18 23.43 46.91 23.43 42.64 19.15 42.64 19.15 46.91 19.15 51.18 19.15 55.45 23.43 55.45 23.43 59.72 27.7 59.72 31.97 59.72"/>
  <polygon class="cls-11" points="104.58 46.91 104.58 51.18 100.3 51.18 100.3 55.45 96.03 55.45 96.03 59.72 100.3 59.72 104.58 59.72 104.58 55.45 108.85 55.45 108.85 51.18 108.85 46.91 108.85 42.64 104.58 42.64 104.58 46.91"/>
  <polygon class="cls-9" points="78.95 110.97 78.95 115.24 83.22 115.24 87.49 115.24 87.49 110.97 83.22 110.97 78.95 110.97"/>
  <polygon class="cls-9" points="40.51 110.97 40.51 115.24 44.78 115.24 49.05 115.24 49.05 110.97 44.78 110.97 40.51 110.97"/>
  <polygon class="cls-9" points="44.78 106.7 44.78 102.43 44.78 98.16 40.51 98.16 40.51 93.89 44.78 93.89 44.78 98.16 49.05 98.16 49.05 93.89 49.05 89.62 44.78 89.62 44.78 85.35 40.51 85.35 36.24 85.35 36.24 89.62 36.24 93.89 31.97 93.89 31.97 98.16 31.97 102.43 36.24 102.43 36.24 106.7 40.51 106.7 44.78 106.7"/>
  <rect class="cls-9" x="104.58" y="98.16" width="4.27" height="4.27"/>
  <polygon class="cls-9" points="96.03 93.89 91.76 93.89 91.76 89.62 91.76 85.35 87.49 85.35 83.22 85.35 83.22 89.62 78.95 89.62 78.95 93.89 78.95 98.16 83.22 98.16 83.22 93.89 87.49 93.89 87.49 98.16 83.22 98.16 83.22 102.43 83.22 106.7 87.49 106.7 91.76 106.7 91.76 102.43 96.03 102.43 96.03 98.16 96.03 93.89"/>
  <polygon class="cls-9" points="117.39 89.62 113.12 89.62 113.12 85.35 108.85 85.35 108.85 89.62 108.85 93.89 108.85 98.16 113.12 98.16 117.39 98.16 117.39 93.89 121.66 93.89 121.66 89.62 117.39 89.62"/>
  <polygon class="cls-9" points="113.12 85.35 117.39 85.35 121.66 85.35 121.66 81.08 121.66 76.8 117.39 76.8 113.12 76.8 113.12 81.08 113.12 85.35"/>
  <path class="cls-9" d="M31.97,81.08h4.27v-4.27h8.54v-4.27h8.54v4.27h8.54v-4.27h4.27v4.27h8.54v-4.27h8.54v4.27h8.54v4.27h4.27v4.27h4.27v-12.81h-4.27v-8.54h-4.27v-4.27h-4.27v-4.27h-4.27v-4.27h-4.27v-4.27h-29.9v4.27h-4.27v4.27h-4.27v4.27h-4.27v4.27h-4.27v8.54h-4.27v12.81h4.27v-4.27ZM49.05,68.26v-4.27h4.27v4.27h-4.27ZM74.68,68.26v-4.27h4.27v4.27h-4.27Z"/>
  <rect class="cls-1" x="74.68" y="63.99" width="4.27" height="4.27"/>
  <rect class="cls-1" x="49.05" y="63.99" width="4.27" height="4.27"/>
  <polygon class="cls-9" points="87.49 51.18 87.49 55.45 91.76 55.45 91.76 51.18 91.76 46.91 96.03 46.91 96.03 42.64 100.3 42.64 104.58 42.64 104.58 38.36 100.3 38.36 96.03 38.36 91.76 38.36 91.76 42.64 87.49 42.64 87.49 46.91 87.49 51.18"/>
  <polygon class="cls-9" points="27.7 42.64 31.97 42.64 31.97 46.91 36.24 46.91 36.24 51.18 36.24 55.45 40.51 55.45 40.51 51.18 40.51 46.91 40.51 42.64 36.24 42.64 36.24 38.36 31.97 38.36 27.7 38.36 23.43 38.36 23.43 42.64 27.7 42.64"/>
  <polygon class="cls-1" points="83.22 115.24 78.95 115.24 78.95 110.97 74.68 110.97 74.68 115.24 70.41 115.24 66.14 115.24 61.86 115.24 57.59 115.24 53.32 115.24 53.32 110.97 49.05 110.97 49.05 115.24 44.78 115.24 40.51 115.24 36.24 115.24 36.24 119.52 40.51 119.52 44.78 119.52 49.05 119.52 53.32 119.52 57.59 119.52 61.86 119.52 66.14 119.52 70.41 119.52 74.68 119.52 78.95 119.52 83.22 119.52 87.49 119.52 91.76 119.52 91.76 115.24 87.49 115.24 83.22 115.24"/>
  <rect class="cls-1" x="91.76" y="110.97" width="4.27" height="4.27"/>
  <rect class="cls-1" x="31.97" y="110.97" width="4.27" height="4.27"/>
  <rect class="cls-1" x="96.03" y="106.7" width="4.27" height="4.27"/>
  <polygon class="cls-1" points="83.22 106.7 78.95 106.7 78.95 110.97 83.22 110.97 87.49 110.97 87.49 106.7 83.22 106.7"/>
  <polygon class="cls-1" points="44.78 106.7 40.51 106.7 40.51 110.97 44.78 110.97 49.05 110.97 49.05 106.7 44.78 106.7"/>
  <rect class="cls-1" x="27.7" y="106.7" width="4.27" height="4.27"/>
  <polygon class="cls-1" points="104.58 102.43 104.58 98.16 104.58 93.89 104.58 89.62 100.3 89.62 100.3 93.89 100.3 98.16 100.3 102.43 100.3 106.7 104.58 106.7 108.85 106.7 113.12 106.7 113.12 102.43 108.85 102.43 104.58 102.43"/>
  <rect class="cls-1" x="113.12" y="98.16" width="4.27" height="4.27"/>
  <rect class="cls-1" x="78.95" y="98.16" width="4.27" height="4.27"/>
  <rect class="cls-1" x="44.78" y="98.16" width="4.27" height="4.27"/>
  <polygon class="cls-1" points="27.7 98.16 27.7 93.89 27.7 89.62 23.43 89.62 23.43 93.89 23.43 98.16 23.43 102.43 23.43 106.7 27.7 106.7 27.7 102.43 27.7 98.16"/>
  <rect class="cls-1" x="117.39" y="93.89" width="4.27" height="4.27"/>
  <rect class="cls-1" x="83.22" y="93.89" width="4.27" height="4.27"/>
  <rect class="cls-1" x="74.68" y="93.89" width="4.27" height="4.27"/>
  <rect class="cls-1" x="49.05" y="93.89" width="4.27" height="4.27"/>
  <rect class="cls-1" x="40.51" y="93.89" width="4.27" height="4.27"/>
  <rect class="cls-1" x="96.03" y="85.35" width="4.27" height="4.27"/>
  <rect class="cls-1" x="27.7" y="85.35" width="4.27" height="4.27"/>
  <polygon class="cls-1" points="121.66 81.08 121.66 85.35 121.66 89.62 121.66 93.89 125.93 93.89 125.93 89.62 125.93 85.35 125.93 81.08 125.93 76.8 121.66 76.8 121.66 81.08"/>
  <rect class="cls-1" x="108.85" y="76.8" width="4.27" height="4.27"/>
  <polygon class="cls-1" points="121.66 76.8 121.66 72.53 117.39 72.53 113.12 72.53 113.12 76.8 117.39 76.8 121.66 76.8"/>
  <polygon class="cls-1" points="100.3 81.08 100.3 85.35 104.58 85.35 104.58 89.62 108.85 89.62 108.85 85.35 108.85 81.08 104.58 81.08 104.58 76.8 104.58 72.53 100.3 72.53 100.3 76.8 100.3 81.08"/>
  <polygon class="cls-1" points="27.7 76.8 27.7 72.53 23.43 72.53 23.43 76.8 23.43 81.08 23.43 85.35 27.7 85.35 27.7 81.08 27.7 76.8"/>
  <polygon class="cls-1" points="31.97 68.26 31.97 63.99 36.24 63.99 36.24 59.72 31.97 59.72 27.7 59.72 23.43 59.72 23.43 63.99 27.7 63.99 27.7 68.26 27.7 72.53 31.97 72.53 31.97 68.26"/>
  <polygon class="cls-1" points="96.03 59.72 91.76 59.72 91.76 63.99 96.03 63.99 96.03 68.26 96.03 72.53 100.3 72.53 100.3 68.26 100.3 63.99 104.58 63.99 104.58 59.72 100.3 59.72 96.03 59.72"/>
  <rect class="cls-1" x="104.58" y="55.45" width="4.27" height="4.27"/>
  <rect class="cls-1" x="87.49" y="55.45" width="4.27" height="4.27"/>
  <rect class="cls-1" x="36.24" y="55.45" width="4.27" height="4.27"/>
  <rect class="cls-1" x="19.15" y="55.45" width="4.27" height="4.27"/>
  <rect class="cls-1" x="83.22" y="51.18" width="4.27" height="4.27"/>
  <rect class="cls-1" x="40.51" y="51.18" width="4.27" height="4.27"/>
  <polygon class="cls-1" points="108.85 51.18 108.85 55.45 113.12 55.45 113.12 51.18 113.12 46.91 113.12 42.64 108.85 42.64 108.85 46.91 108.85 51.18"/>
  <rect class="cls-1" x="78.95" y="46.91" width="4.27" height="4.27"/>
  <rect class="cls-1" x="44.78" y="46.91" width="4.27" height="4.27"/>
  <polygon class="cls-1" points="19.15 46.91 19.15 42.64 14.88 42.64 14.88 46.91 14.88 51.18 14.88 55.45 19.15 55.45 19.15 51.18 19.15 46.91"/>
  <polygon class="cls-1" points="57.59 46.91 61.86 46.91 66.14 46.91 70.41 46.91 74.68 46.91 78.95 46.91 78.95 42.64 74.68 42.64 70.41 42.64 66.14 42.64 61.86 42.64 57.59 42.64 53.32 42.64 49.05 42.64 49.05 46.91 53.32 46.91 57.59 46.91"/>
  <rect class="cls-1" x="83.22" y="42.64" width="4.27" height="4.27"/>
  <rect class="cls-1" x="40.51" y="42.64" width="4.27" height="4.27"/>
  <rect class="cls-1" x="104.58" y="38.36" width="4.27" height="4.27"/>
  <rect class="cls-1" x="87.49" y="38.36" width="4.27" height="4.27"/>
  <rect class="cls-1" x="36.24" y="38.36" width="4.27" height="4.27"/>
  <rect class="cls-1" x="19.15" y="38.36" width="4.27" height="4.27"/>
  <polygon class="cls-1" points="100.3 38.36 104.58 38.36 104.58 34.09 100.3 34.09 96.03 34.09 91.76 34.09 91.76 38.36 96.03 38.36 100.3 38.36"/>
  <polygon class="cls-1" points="31.97 38.36 36.24 38.36 36.24 34.09 31.97 34.09 27.7 34.09 23.43 34.09 23.43 38.36 27.7 38.36 31.97 38.36"/>
  <polygon class="cls-8" points="59.49 85.35 59.49 89.62 61.86 89.62 63.06 89.62 63.06 85.35 61.86 85.35 59.49 85.35"/>
  <polygon class="cls-8" points="66.14 89.62 68.51 89.62 68.51 85.35 66.14 85.35 64.94 85.35 64.94 89.62 66.14 89.62"/>
  <path class="cls-8" d="M61.86,81.08h1.2v4.27h1.87v-4.27h2.4v-4.27h-6.68v4.27h1.2ZM62.21,77.68h3.58v.69h-3.58v-.69Z"/>
  <polygon class="cls-8" points="72.25 85.35 72.25 82.06 68.51 82.06 68.51 85.35 70.41 85.35 72.25 85.35"/>
  <polygon class="cls-8" points="59.46 85.35 59.46 82.06 55.72 82.06 55.72 85.35 57.59 85.35 59.46 85.35"/>
  <rect class="cls-10" x="78.95" y="72.53" width="4.27" height="4.27"/>
  <rect class="cls-10" x="49.05" y="72.53" width="4.27" height="4.27"/>
  <rect class="cls-10" x="62.21" y="77.68" width="3.58" height=".69"/>
  <rect class="cls-3" x="104.58" y="89.62" width="4.27" height="4.27"/>
  <rect class="cls-3" x="117.39" y="85.35" width="4.27" height="4.27"/>
  <rect class="cls-3" x="108.85" y="81.08" width="4.27" height="4.27"/>
  <rect class="cls-3" x="87.49" y="106.7" width="4.27" height="4.27"/>
  <rect class="cls-3" x="36.24" y="106.7" width="4.27" height="4.27"/>
  <rect class="cls-3" x="91.76" y="85.35" width="4.27" height="4.27"/>
  <rect class="cls-3" x="31.97" y="85.35" width="4.27" height="4.27"/>
  <rect class="cls-3" x="96.03" y="102.43" width="4.27" height="4.27"/>
  <rect class="cls-3" x="27.7" y="102.43" width="4.27" height="4.27"/>
</svg>