<?xml version="1.0" encoding="UTF-8"?>
<svg id="_레이어_1" data-name="레이어 1" xmlns="http://www.w3.org/2000/svg" viewBox="0 0 128 128">
  <defs>
    <style>
      .cls-1 {
        fill: #242831;
      }

      .cls-2 {
        fill: #7d818c;
      }

      .cls-3 {
        fill: #656774;
      }

      .cls-4 {
        fill: none;
      }

      .cls-5 {
        fill: #d1d1d7;
      }

      .cls-6 {
        fill: #d3d3d9;
      }

      .cls-7 {
        fill: #a0a0a0;
      }

      .cls-8 {
        fill: #d3d3d8;
      }

      .cls-9 {
        fill: #222630;
      }

      .cls-10 {
        fill: #8d919c;
      }

      .cls-11 {
        fill: #f97ca6;
      }
    </style>
  </defs>
  <rect class="cls-4" x="100.3" y="81.08" width="4.27" height="4.27"/>
  <path class="cls-8" d="M83.22,102.43v-4.27h-4.27v-4.27h-4.27v-4.27h4.27v-4.27h4.27v-8.54h-8.54v-4.27h-7.34v4.27h-2.4v4.27h3.57v-3.29h3.74v3.29h-3.74v1.35h-9.02v-1.35h3.57v-4.27h-2.4v-4.27h-7.34v4.27h-8.54v4.27h4.27v8.54h4.27v4.27h-4.27v12.81h4.27v4.27h21.36v-4.27h4.27v-4.27h4.27ZM57.59,81.08h-1.87v-3.29h3.74v3.29h-1.87Z"/>
  <rect class="cls-8" x="91.76" y="76.8" width="4.27" height="4.27"/>
  <rect class="cls-8" x="31.97" y="76.8" width="4.27" height="4.27"/>
  <rect class="cls-5" x="44.78" y="98.16" width="4.27" height="4.27"/>
  <rect class="cls-6" x="44.78" y="81.08" width="4.27" height="4.27"/>
  <polygon class="cls-9" points="78.95 76.8 83.22 76.8 83.22 72.53 78.95 72.53 74.68 72.53 74.68 76.8 78.95 76.8"/>
  <polygon class="cls-9" points="49.05 76.8 53.32 76.8 53.32 72.53 49.05 72.53 44.78 72.53 44.78 76.8 49.05 76.8"/>
  <polygon class="cls-2" points="27.7 93.89 27.7 98.16 31.97 98.16 31.97 93.89 31.97 89.62 36.24 89.62 36.24 85.35 31.97 85.35 27.7 85.35 27.7 89.62 27.7 93.89"/>
  <rect class="cls-2" x="87.49" y="106.7" width="4.27" height="4.27"/>
  <rect class="cls-2" x="36.24" y="106.7" width="4.27" height="4.27"/>
  <polygon class="cls-2" points="36.24 102.43 36.24 98.16 31.97 98.16 31.97 102.43 31.97 106.7 36.24 106.7 36.24 102.43"/>
  <polygon class="cls-2" points="96.03 98.16 91.76 98.16 91.76 102.43 91.76 106.7 96.03 106.7 96.03 102.43 96.03 98.16"/>
  <rect class="cls-2" x="108.85" y="98.16" width="4.27" height="4.27"/>
  <rect class="cls-2" x="104.58" y="89.62" width="4.27" height="4.27"/>
  <polygon class="cls-2" points="91.76 85.35 91.76 89.62 96.03 89.62 96.03 93.89 96.03 98.16 100.3 98.16 100.3 93.89 100.3 89.62 100.3 85.35 96.03 85.35 91.76 85.35"/>
  <rect class="cls-2" x="113.12" y="89.62" width="4.27" height="4.27"/>
  <rect class="cls-2" x="61.86" y="68.26" width="4.27" height="4.27"/>
  <polygon class="cls-2" points="31.97 46.91 36.24 46.91 36.24 51.18 40.51 51.18 40.51 46.91 44.78 46.91 44.78 42.64 49.05 42.64 49.05 38.36 44.78 38.36 40.51 38.36 36.24 38.36 36.24 42.64 31.97 42.64 27.7 42.64 27.7 46.91 31.97 46.91"/>
  <polygon class="cls-11" points="83.22 81.08 87.49 81.08 91.76 81.08 91.76 76.8 91.76 72.53 87.49 72.53 83.22 72.53 83.22 76.8 83.22 81.08"/>
  <polygon class="cls-11" points="40.51 81.08 44.78 81.08 44.78 76.8 44.78 72.53 40.51 72.53 36.24 72.53 36.24 76.8 36.24 81.08 40.51 81.08"/>
  <polygon class="cls-10" points="27.7 59.72 27.7 55.45 31.97 55.45 36.24 55.45 36.24 51.18 36.24 46.91 31.97 46.91 27.7 46.91 23.43 46.91 23.43 51.18 19.15 51.18 19.15 55.45 19.15 59.72 23.43 59.72 27.7 59.72"/>
  <polygon class="cls-10" points="78.95 106.7 78.95 110.97 83.22 110.97 87.49 110.97 87.49 106.7 83.22 106.7 78.95 106.7"/>
  <polygon class="cls-10" points="40.51 106.7 40.51 110.97 44.78 110.97 49.05 110.97 49.05 106.7 44.78 106.7 40.51 106.7"/>
  <polygon class="cls-10" points="44.78 102.43 44.78 98.16 44.78 93.89 40.51 93.89 40.51 89.62 44.78 89.62 44.78 93.89 49.05 93.89 49.05 89.62 49.05 85.35 44.78 85.35 44.78 81.08 40.51 81.08 36.24 81.08 36.24 85.35 36.24 89.62 31.97 89.62 31.97 93.89 31.97 98.16 36.24 98.16 36.24 102.43 40.51 102.43 44.78 102.43"/>
  <polygon class="cls-10" points="96.03 89.62 91.76 89.62 91.76 85.35 91.76 81.08 87.49 81.08 83.22 81.08 83.22 85.35 78.95 85.35 78.95 89.62 78.95 93.89 83.22 93.89 83.22 89.62 87.49 89.62 87.49 93.89 83.22 93.89 83.22 98.16 83.22 102.43 87.49 102.43 91.76 102.43 91.76 98.16 96.03 98.16 96.03 93.89 96.03 89.62"/>
  <polygon class="cls-10" points="117.39 93.89 113.12 93.89 113.12 89.62 117.39 89.62 121.66 89.62 121.66 85.35 121.66 81.08 117.39 81.08 113.12 81.08 113.12 85.35 108.85 85.35 108.85 89.62 108.85 93.89 104.58 93.89 104.58 98.16 108.85 98.16 113.12 98.16 113.12 102.43 117.39 102.43 117.39 98.16 121.66 98.16 121.66 93.89 117.39 93.89"/>
  <polygon class="cls-10" points="31.97 76.8 36.24 76.8 36.24 72.53 40.51 72.53 44.78 72.53 44.78 68.26 49.05 68.26 53.32 68.26 53.32 72.53 57.59 72.53 60.66 72.53 61.86 72.53 61.86 68.26 66.14 68.26 66.14 72.53 67.34 72.53 70.41 72.53 74.68 72.53 74.68 68.26 78.95 68.26 83.22 68.26 83.22 72.53 87.49 72.53 91.76 72.53 91.76 76.8 96.03 76.8 96.03 81.08 100.3 81.08 100.3 76.8 100.3 72.53 100.3 68.26 96.03 68.26 96.03 63.99 96.03 59.72 91.76 59.72 91.76 55.45 87.49 55.45 87.49 51.18 83.22 51.18 83.22 46.91 78.95 46.91 78.95 42.64 74.68 42.64 70.41 42.64 66.14 42.64 61.86 42.64 57.59 42.64 53.32 42.64 49.05 42.64 49.05 46.91 44.78 46.91 44.78 51.18 40.51 51.18 40.51 55.45 36.24 55.45 36.24 59.72 31.97 59.72 31.97 63.99 31.97 68.26 27.7 68.26 27.7 72.53 27.7 76.8 27.7 81.08 31.97 81.08 31.97 76.8"/>
  <polygon class="cls-1" points="83.22 110.97 78.95 110.97 78.95 106.7 74.68 106.7 74.68 110.97 70.41 110.97 66.14 110.97 61.86 110.97 57.59 110.97 53.32 110.97 53.32 106.7 49.05 106.7 49.05 110.97 44.78 110.97 40.51 110.97 36.24 110.97 36.24 115.24 40.51 115.24 44.78 115.24 49.05 115.24 53.32 115.24 57.59 115.24 61.86 115.24 66.14 115.24 70.41 115.24 74.68 115.24 78.95 115.24 83.22 115.24 87.49 115.24 91.76 115.24 91.76 110.97 87.49 110.97 83.22 110.97"/>
  <rect class="cls-1" x="91.76" y="106.7" width="4.27" height="4.27"/>
  <rect class="cls-1" x="31.97" y="106.7" width="4.27" height="4.27"/>
  <rect class="cls-1" x="96.03" y="102.43" width="4.27" height="4.27"/>
  <polygon class="cls-1" points="83.22 102.43 78.95 102.43 78.95 106.7 83.22 106.7 87.49 106.7 87.49 102.43 83.22 102.43"/>
  <polygon class="cls-1" points="44.78 102.43 40.51 102.43 40.51 106.7 44.78 106.7 49.05 106.7 49.05 102.43 44.78 102.43"/>
  <rect class="cls-1" x="27.7" y="102.43" width="4.27" height="4.27"/>
  <polygon class="cls-1" points="108.85 102.43 108.85 106.7 113.12 106.7 117.39 106.7 117.39 102.43 113.12 102.43 108.85 102.43"/>
  <polygon class="cls-1" points="104.58 98.16 104.58 93.89 104.58 89.62 104.58 85.35 100.3 85.35 100.3 89.62 100.3 93.89 100.3 98.16 100.3 102.43 104.58 102.43 108.85 102.43 108.85 98.16 104.58 98.16"/>
  <rect class="cls-1" x="78.95" y="93.89" width="4.27" height="4.27"/>
  <rect class="cls-1" x="44.78" y="93.89" width="4.27" height="4.27"/>
  <polygon class="cls-1" points="27.7 93.89 27.7 89.62 27.7 85.35 23.43 85.35 23.43 89.62 23.43 93.89 23.43 98.16 23.43 102.43 27.7 102.43 27.7 98.16 27.7 93.89"/>
  <rect class="cls-1" x="117.39" y="98.16" width="4.27" height="4.27"/>
  <rect class="cls-1" x="83.22" y="89.62" width="4.27" height="4.27"/>
  <rect class="cls-1" x="74.68" y="89.62" width="4.27" height="4.27"/>
  <rect class="cls-1" x="49.05" y="89.62" width="4.27" height="4.27"/>
  <rect class="cls-1" x="40.51" y="89.62" width="4.27" height="4.27"/>
  <rect class="cls-1" x="96.03" y="81.08" width="4.27" height="4.27"/>
  <rect class="cls-1" x="27.7" y="81.08" width="4.27" height="4.27"/>
  <polygon class="cls-1" points="121.66 85.35 121.66 89.62 121.66 93.89 121.66 98.16 125.93 98.16 125.93 93.89 125.93 89.62 125.93 85.35 125.93 81.08 121.66 81.08 121.66 85.35"/>
  <polygon class="cls-1" points="100.3 76.8 100.3 81.08 104.58 81.08 104.58 85.35 108.85 85.35 108.85 81.08 113.12 81.08 117.39 81.08 121.66 81.08 121.66 76.8 117.39 76.8 113.12 76.8 108.85 76.8 104.58 76.8 104.58 72.53 104.58 68.26 100.3 68.26 100.3 72.53 100.3 76.8"/>
  <polygon class="cls-1" points="27.7 72.53 27.7 68.26 23.43 68.26 23.43 72.53 23.43 76.8 23.43 81.08 27.7 81.08 27.7 76.8 27.7 72.53"/>
  <polygon class="cls-1" points="31.97 63.99 31.97 59.72 36.24 59.72 36.24 55.45 31.97 55.45 27.7 55.45 27.7 59.72 23.43 59.72 19.15 59.72 19.15 63.99 23.43 63.99 27.7 63.99 27.7 68.26 31.97 68.26 31.97 63.99"/>
  <rect class="cls-1" x="91.76" y="55.45" width="4.27" height="4.27"/>
  <rect class="cls-1" x="87.49" y="51.18" width="4.27" height="4.27"/>
  <rect class="cls-1" x="36.24" y="51.18" width="4.27" height="4.27"/>
  <rect class="cls-1" x="83.22" y="46.91" width="4.27" height="4.27"/>
  <rect class="cls-1" x="40.51" y="46.91" width="4.27" height="4.27"/>
  <rect class="cls-1" x="78.95" y="42.64" width="4.27" height="4.27"/>
  <rect class="cls-1" x="44.78" y="42.64" width="4.27" height="4.27"/>
  <polygon class="cls-1" points="53.32 42.64 57.59 42.64 61.86 42.64 66.14 42.64 70.41 42.64 74.68 42.64 78.95 42.64 78.95 38.36 74.68 38.36 70.41 38.36 66.14 38.36 61.86 38.36 57.59 38.36 53.32 38.36 49.05 38.36 49.05 42.64 53.32 42.64"/>
  <polygon class="cls-1" points="44.78 38.36 49.05 38.36 49.05 34.09 44.78 34.09 40.51 34.09 36.24 34.09 36.24 38.36 40.51 38.36 44.78 38.36"/>
  <polygon class="cls-1" points="36.24 42.64 36.24 38.36 31.97 38.36 27.7 38.36 27.7 42.64 31.97 42.64 36.24 42.64"/>
  <rect class="cls-1" x="23.43" y="42.64" width="4.27" height="4.27"/>
  <rect class="cls-1" x="19.15" y="46.91" width="4.27" height="4.27"/>
  <polygon class="cls-1" points="19.15 51.18 14.88 51.18 14.88 55.45 14.88 59.72 19.15 59.72 19.15 55.45 19.15 51.18"/>
  <polygon class="cls-2" points="83.22 42.64 83.22 46.91 87.49 46.91 87.49 51.18 91.76 51.18 91.76 46.91 96.03 46.91 100.3 46.91 100.3 42.64 96.03 42.64 91.76 42.64 91.76 38.36 87.49 38.36 83.22 38.36 78.95 38.36 78.95 42.64 83.22 42.64"/>
  <polygon class="cls-10" points="96.03 46.91 91.76 46.91 91.76 51.18 91.76 55.45 96.03 55.45 96.03 59.72 100.3 59.72 104.58 59.72 108.85 59.72 108.85 55.45 108.85 51.18 104.58 51.18 104.58 46.91 100.3 46.91 96.03 46.91"/>
  <polygon class="cls-1" points="100.3 59.72 96.03 59.72 96.03 63.99 96.03 68.26 100.3 68.26 100.3 63.99 104.58 63.99 108.85 63.99 108.85 59.72 104.58 59.72 100.3 59.72"/>
  <polygon class="cls-1" points="104.58 20.2 104.58 15.93 100.3 15.93 96.03 15.93 91.76 15.93 91.76 20.2 96.03 20.2 96.03 24.47 91.76 24.47 91.76 28.75 96.03 28.75 100.3 28.75 104.58 28.75 104.58 24.47 100.3 24.47 100.3 20.2 104.58 20.2"/>
  <polygon class="cls-1" points="121.84 11.66 121.84 7.39 117.57 7.39 113.3 7.39 109.03 7.39 109.03 11.66 113.3 11.66 113.3 15.93 109.03 15.93 109.03 20.2 113.3 20.2 117.57 20.2 121.84 20.2 121.84 15.93 117.57 15.93 117.57 11.66 121.84 11.66"/>
  <polygon class="cls-1" points="87.49 38.36 91.76 38.36 91.76 34.09 87.49 34.09 83.22 34.09 78.95 34.09 78.95 38.36 83.22 38.36 87.49 38.36"/>
  <polygon class="cls-1" points="96.03 42.64 100.3 42.64 100.3 38.36 96.03 38.36 91.76 38.36 91.76 42.64 96.03 42.64"/>
  <rect class="cls-1" x="100.3" y="42.64" width="4.27" height="4.27"/>
  <rect class="cls-1" x="104.58" y="46.91" width="4.27" height="4.27"/>
  <polygon class="cls-1" points="108.85 59.72 113.12 59.72 113.12 55.45 113.12 51.18 108.85 51.18 108.85 55.45 108.85 59.72"/>
  <path class="cls-9" d="M61.86,76.8h1.2v4.27h-3.57v1.35h9.02v-1.35h-3.57v-4.27h2.4v-4.27h-6.68v4.27h1.2ZM62.21,73.41h3.58v.69h-3.58v-.69Z"/>
  <polygon class="cls-9" points="72.25 81.08 72.25 77.79 68.51 77.79 68.51 81.08 70.41 81.08 72.25 81.08"/>
  <polygon class="cls-9" points="55.72 77.79 55.72 81.08 57.59 81.08 59.46 81.08 59.46 77.79 55.72 77.79"/>
  <polygon class="cls-2" points="83.22 72.53 83.22 68.26 78.95 68.26 74.68 68.26 74.68 72.53 78.95 72.53 83.22 72.53"/>
  <polygon class="cls-2" points="53.32 72.53 53.32 68.26 49.05 68.26 44.78 68.26 44.78 72.53 49.05 72.53 53.32 72.53"/>
  <rect class="cls-7" x="62.21" y="73.41" width="3.58" height=".69"/>
  <rect class="cls-3" x="104.58" y="85.35" width="4.27" height="4.27"/>
  <rect class="cls-3" x="117.39" y="89.62" width="4.27" height="4.27"/>
  <rect class="cls-3" x="108.85" y="81.08" width="4.27" height="4.27"/>
  <rect class="cls-3" x="87.49" y="102.43" width="4.27" height="4.27"/>
  <rect class="cls-3" x="36.24" y="102.43" width="4.27" height="4.27"/>
  <rect class="cls-3" x="91.76" y="81.08" width="4.27" height="4.27"/>
  <rect class="cls-3" x="31.97" y="81.08" width="4.27" height="4.27"/>
  <rect class="cls-3" x="96.03" y="98.16" width="4.27" height="4.27"/>
  <rect class="cls-3" x="27.7" y="98.16" width="4.27" height="4.27"/>
</svg>