<?xml version="1.0" encoding="UTF-8"?>
<svg id="_레이어_1" data-name="레이어 1" xmlns="http://www.w3.org/2000/svg" viewBox="0 0 128 128">
  <defs>
    <style>
      .cls-1 {
        fill: #242831;
      }

      .cls-2 {
        fill: #7d818c;
      }

      .cls-3 {
        fill: #656774;
      }

      .cls-4 {
        fill: none;
      }

      .cls-5 {
        fill: #d3d3d8;
      }

      .cls-6 {
        fill: #222630;
      }

      .cls-7 {
        fill: #b8b8c1;
      }

      .cls-8 {
        fill: #8d919c;
      }

      .cls-9 {
        fill: #fefefe;
      }

      .cls-10 {
        fill: #f3b1c7;
      }

      .cls-11 {
        fill: #f97ca6;
      }
    </style>
  </defs>
  <polygon class="cls-4" points="96.03 89.62 100.3 89.62 100.3 85.35 100.3 81.08 96.03 81.08 96.03 85.35 96.03 89.62"/>
  <path class="cls-5" d="M44.78,76.8v4.27h-4.27v4.27h4.27v8.54h4.27v4.27h-4.27v12.81h4.27v4.27h17.08v-4.27h8.54v-4.27h4.27v-4.27h-4.27v-4.27h-4.27v-4.27h4.27v-4.27h4.27v-4.27h8.54v-4.27h4.27v-4.27h-8.54v4.27h-8.54v-4.27h-8.54v-4.27h-5.19v4.27h-2.4v4.27h3.57v-3.29h3.74v3.29h-3.74v4.27h-3.57v-4.27h-1.87v4.27h-3.57v-4.27h3.57v-4.27h-2.4v-4.27h-5.22v4.27h-4.27ZM49.33,81.08v-3.29h3.74v3.29h-3.74Z"/>
  <polygon class="cls-6" points="70.41 76.8 74.68 76.8 74.68 72.53 74.68 68.26 74.68 63.99 70.41 63.99 70.41 68.26 66.14 68.26 66.14 72.53 66.14 76.8 70.41 76.8"/>
  <rect class="cls-9" x="66.14" y="63.99" width="4.27" height="4.27"/>
  <polygon class="cls-2" points="31.97 98.16 31.97 102.43 36.24 102.43 36.24 98.16 36.24 93.89 36.24 89.62 31.97 89.62 31.97 93.89 31.97 98.16"/>
  <polygon class="cls-1" points="87.49 110.97 83.22 110.97 83.22 115.24 87.49 115.24 91.76 115.24 96.03 115.24 96.03 110.97 91.76 110.97 87.49 110.97"/>
  <rect class="cls-2" x="91.76" y="106.7" width="4.27" height="4.27"/>
  <rect class="cls-2" x="87.49" y="102.43" width="4.27" height="4.27"/>
  <rect class="cls-2" x="100.3" y="93.89" width="4.27" height="4.27"/>
  <polygon class="cls-2" points="87.49 89.62 87.49 93.89 91.76 93.89 91.76 98.16 91.76 102.43 96.03 102.43 96.03 98.16 96.03 93.89 96.03 89.62 91.76 89.62 87.49 89.62"/>
  <rect class="cls-2" x="104.58" y="85.35" width="4.27" height="4.27"/>
  <rect class="cls-2" x="78.95" y="42.64" width="4.27" height="4.27"/>
  <rect class="cls-2" x="40.51" y="42.64" width="4.27" height="4.27"/>
  <polygon class="cls-11" points="74.68 81.08 78.95 81.08 83.22 81.08 83.22 76.8 83.22 72.53 78.95 72.53 74.68 72.53 74.68 76.8 74.68 81.08"/>
  <polygon class="cls-11" points="44.78 81.08 44.78 76.8 40.51 76.8 40.51 72.53 36.24 72.53 36.24 76.8 36.24 81.08 40.51 81.08 44.78 81.08"/>
  <polygon class="cls-6" points="44.78 76.8 49.05 76.8 49.05 72.53 49.05 68.26 49.05 63.99 44.78 63.99 44.78 68.26 40.51 68.26 40.51 72.53 40.51 76.8 44.78 76.8"/>
  <polygon class="cls-11" points="91.76 51.18 91.76 46.91 96.03 46.91 96.03 42.64 96.03 38.36 96.03 34.09 91.76 34.09 91.76 38.36 91.76 42.64 87.49 42.64 87.49 46.91 87.49 51.18 87.49 55.45 91.76 55.45 91.76 51.18"/>
  <polygon class="cls-10" points="96.03 38.36 96.03 42.64 96.03 46.91 91.76 46.91 91.76 51.18 91.76 55.45 96.03 55.45 96.03 51.18 100.3 51.18 100.3 46.91 100.3 42.64 100.3 38.36 100.3 34.09 96.03 34.09 96.03 38.36"/>
  <rect class="cls-8" x="100.3" y="98.16" width="4.27" height="4.27"/>
  <polygon class="cls-8" points="83.22 106.7 87.49 106.7 87.49 102.43 91.76 102.43 91.76 98.16 91.76 93.89 87.49 93.89 87.49 89.62 87.49 85.35 83.22 85.35 78.95 85.35 78.95 89.62 74.68 89.62 74.68 93.89 74.68 98.16 78.95 98.16 78.95 93.89 83.22 93.89 83.22 98.16 78.95 98.16 78.95 102.43 78.95 106.7 78.95 110.97 74.68 110.97 70.41 110.97 70.41 115.24 74.68 115.24 78.95 115.24 83.22 115.24 83.22 110.97 83.22 106.7"/>
  <polygon class="cls-8" points="108.85 89.62 104.58 89.62 104.58 93.89 104.58 98.16 108.85 98.16 108.85 93.89 113.12 93.89 113.12 89.62 108.85 89.62"/>
  <polygon class="cls-8" points="44.78 93.89 44.78 89.62 44.78 85.35 40.51 85.35 40.51 89.62 36.24 89.62 36.24 93.89 40.51 93.89 40.51 98.16 44.78 98.16 44.78 93.89"/>
  <polygon class="cls-8" points="104.58 85.35 108.85 85.35 113.12 85.35 113.12 81.08 113.12 76.8 108.85 76.8 104.58 76.8 104.58 81.08 104.58 85.35"/>
  <rect class="cls-9" x="40.51" y="63.99" width="4.27" height="4.27"/>
  <polygon class="cls-8" points="66.14 42.64 61.86 42.64 57.59 42.64 53.32 42.64 49.05 42.64 49.05 46.91 44.78 46.91 44.78 51.18 40.51 51.18 40.51 55.45 40.51 59.72 36.24 59.72 36.24 63.99 36.24 68.26 31.97 68.26 31.97 72.53 31.97 76.8 31.97 81.08 36.24 81.08 36.24 76.8 36.24 72.53 40.51 72.53 40.51 68.26 40.51 63.99 44.78 63.99 49.05 63.99 49.05 68.26 49.05 72.53 53.32 72.53 54.27 72.53 55.47 72.53 55.47 68.26 57.59 68.26 58.81 68.26 59.74 68.26 59.74 72.53 60.95 72.53 66.14 72.53 66.14 68.26 66.14 63.99 70.41 63.99 74.68 63.99 74.68 68.26 74.68 72.53 78.95 72.53 83.22 72.53 83.22 76.8 87.49 76.8 91.76 76.8 91.76 81.08 96.03 81.08 96.03 76.8 96.03 72.53 96.03 68.26 91.76 68.26 91.76 63.99 91.76 59.72 87.49 59.72 87.49 55.45 83.22 55.45 83.22 51.18 78.95 51.18 78.95 46.91 74.68 46.91 74.68 42.64 70.41 42.64 66.14 42.64"/>
  <polygon class="cls-8" points="83.22 42.64 83.22 46.91 83.22 51.18 87.49 51.18 87.49 46.91 87.49 42.64 91.76 42.64 91.76 38.36 91.76 34.09 96.03 34.09 96.03 29.82 91.76 29.82 87.49 29.82 87.49 34.09 83.22 34.09 83.22 38.36 83.22 42.64"/>
  <polygon class="cls-1" points="74.68 115.24 70.41 115.24 70.41 110.97 66.14 110.97 66.14 115.24 61.86 115.24 57.59 115.24 53.32 115.24 49.05 115.24 44.78 115.24 40.51 115.24 40.51 119.52 44.78 119.52 49.05 119.52 53.32 119.52 57.59 119.52 61.86 119.52 66.14 119.52 70.41 119.52 74.68 119.52 78.95 119.52 83.22 119.52 83.22 115.24 78.95 115.24 74.68 115.24"/>
  <polygon class="cls-8" points="49.05 115.24 49.05 110.97 44.78 110.97 44.78 106.7 44.78 102.43 40.51 102.43 40.51 98.16 36.24 98.16 36.24 102.43 36.24 106.7 40.51 106.7 40.51 110.97 40.51 115.24 44.78 115.24 49.05 115.24"/>
  <rect class="cls-1" x="36.24" y="110.97" width="4.27" height="4.27"/>
  <polygon class="cls-3" points="83.22 106.7 83.22 110.97 87.49 110.97 91.76 110.97 91.76 106.7 87.49 106.7 83.22 106.7"/>
  <rect class="cls-1" x="74.68" y="106.7" width="4.27" height="4.27"/>
  <rect class="cls-1" x="31.97" y="106.7" width="4.27" height="4.27"/>
  <rect class="cls-1" x="104.58" y="98.16" width="4.27" height="4.27"/>
  <polygon class="cls-1" points="100.3 98.16 100.3 93.89 100.3 89.62 96.03 89.62 96.03 93.89 96.03 98.16 96.03 102.43 96.03 106.7 96.03 110.97 100.3 110.97 100.3 106.7 104.58 106.7 104.58 102.43 100.3 102.43 100.3 98.16"/>
  <rect class="cls-1" x="74.68" y="98.16" width="4.27" height="4.27"/>
  <polygon class="cls-1" points="31.97 98.16 31.97 93.89 31.97 89.62 27.7 89.62 27.7 93.89 27.7 98.16 27.7 102.43 27.7 106.7 31.97 106.7 31.97 102.43 31.97 98.16"/>
  <rect class="cls-1" x="108.85" y="93.89" width="4.27" height="4.27"/>
  <rect class="cls-1" x="78.95" y="93.89" width="4.27" height="4.27"/>
  <rect class="cls-1" x="70.41" y="93.89" width="4.27" height="4.27"/>
  <rect class="cls-1" x="44.78" y="93.89" width="4.27" height="4.27"/>
  <rect class="cls-1" x="40.51" y="98.16" width="4.27" height="4.27"/>
  <rect class="cls-1" x="36.24" y="93.89" width="4.27" height="4.27"/>
  <polygon class="cls-1" points="91.76 89.62 96.03 89.62 96.03 85.35 96.03 81.08 91.76 81.08 91.76 85.35 91.76 89.62"/>
  <polygon class="cls-1" points="36.24 85.35 36.24 81.08 31.97 81.08 31.97 85.35 31.97 89.62 36.24 89.62 36.24 85.35"/>
  <polygon class="cls-1" points="113.12 85.35 113.12 89.62 113.12 93.89 117.39 93.89 117.39 89.62 117.39 85.35 117.39 81.08 117.39 76.8 113.12 76.8 113.12 81.08 113.12 85.35"/>
  <polygon class="cls-1" points="113.12 76.8 113.12 72.53 108.85 72.53 104.58 72.53 104.58 76.8 108.85 76.8 113.12 76.8"/>
  <polygon class="cls-1" points="96.03 76.8 96.03 81.08 100.3 81.08 100.3 85.35 100.3 89.62 104.58 89.62 104.58 85.35 104.58 81.08 104.58 76.8 100.3 76.8 100.3 72.53 100.3 68.26 96.03 68.26 96.03 72.53 96.03 76.8"/>
  <polygon class="cls-1" points="31.97 72.53 31.97 68.26 27.7 68.26 27.7 72.53 27.7 76.8 27.7 81.08 31.97 81.08 31.97 76.8 31.97 72.53"/>
  <polygon class="cls-1" points="36.24 63.99 36.24 59.72 40.51 59.72 40.51 55.45 40.51 51.18 36.24 51.18 36.24 55.45 31.97 55.45 31.97 59.72 31.97 63.99 31.97 68.26 36.24 68.26 36.24 63.99"/>
  <polygon class="cls-1" points="87.49 55.45 87.49 59.72 91.76 59.72 91.76 63.99 91.76 68.26 96.03 68.26 96.03 63.99 96.03 59.72 96.03 55.45 91.76 55.45 87.49 55.45"/>
  <rect class="cls-1" x="96.03" y="51.18" width="4.27" height="4.27"/>
  <rect class="cls-1" x="83.22" y="51.18" width="4.27" height="4.27"/>
  <rect class="cls-1" x="78.95" y="46.91" width="4.27" height="4.27"/>
  <rect class="cls-1" x="40.51" y="46.91" width="4.27" height="4.27"/>
  <rect class="cls-1" x="74.68" y="42.64" width="4.27" height="4.27"/>
  <polygon class="cls-1" points="100.3 42.64 100.3 46.91 100.3 51.18 104.58 51.18 104.58 46.91 104.58 42.64 104.58 38.36 104.58 34.09 100.3 34.09 100.3 38.36 100.3 42.64"/>
  <polygon class="cls-1" points="83.22 38.36 83.22 34.09 78.95 34.09 78.95 38.36 78.95 42.64 83.22 42.64 83.22 38.36"/>
  <polygon class="cls-1" points="44.78 42.64 44.78 46.91 49.05 46.91 49.05 42.64 53.32 42.64 57.59 42.64 61.86 42.64 66.14 42.64 70.41 42.64 74.68 42.64 74.68 38.36 70.41 38.36 66.14 38.36 61.86 38.36 57.59 38.36 53.32 38.36 49.05 38.36 49.05 34.09 44.78 34.09 44.78 38.36 44.78 42.64"/>
  <rect class="cls-1" x="96.03" y="29.82" width="4.27" height="4.27"/>
  <rect class="cls-1" x="83.22" y="29.82" width="4.27" height="4.27"/>
  <rect class="cls-1" x="40.51" y="29.82" width="4.27" height="4.27"/>
  <polygon class="cls-1" points="96.03 29.82 96.03 25.55 91.76 25.55 87.49 25.55 87.49 29.82 91.76 29.82 96.03 29.82"/>
  <polygon class="cls-1" points="36.24 25.55 31.97 25.55 31.97 29.82 36.24 29.82 40.51 29.82 40.51 25.55 36.24 25.55"/>
  <polygon class="cls-6" points="53.32 81.08 53.1 81.08 53.1 85.35 53.32 85.35 55.22 85.35 56.67 85.35 56.67 81.08 55.22 81.08 53.32 81.08"/>
  <polygon class="cls-6" points="61.86 85.35 62.12 85.35 62.12 81.08 61.86 81.08 58.79 81.08 58.58 81.08 58.55 81.08 58.55 85.35 61.86 85.35"/>
  <polygon class="cls-6" points="56.67 76.8 56.67 81.08 58.55 81.08 58.55 76.8 58.58 76.8 58.79 76.8 60.95 76.8 60.95 72.53 59.74 72.53 58.81 72.53 57.59 72.53 55.47 72.53 54.27 72.53 54.27 76.8 56.67 76.8"/>
  <rect class="cls-6" x="62.12" y="77.79" width="3.74" height="3.29"/>
  <rect class="cls-6" x="49.33" y="77.79" width="3.74" height="3.29"/>
  <rect class="cls-7" x="87.49" y="81.08" width="4.27" height="4.27"/>
  <rect class="cls-7" x="36.24" y="81.08" width="4.27" height="4.27"/>
  <rect class="cls-3" x="100.3" y="89.62" width="4.27" height="4.27"/>
  <rect class="cls-3" x="108.85" y="85.35" width="4.27" height="4.27"/>
  <rect class="cls-3" x="36.24" y="106.7" width="4.27" height="4.27"/>
  <rect class="cls-3" x="87.49" y="85.35" width="4.27" height="4.27"/>
  <rect class="cls-3" x="36.24" y="85.35" width="4.27" height="4.27"/>
  <rect class="cls-3" x="91.76" y="102.43" width="4.27" height="4.27"/>
  <rect class="cls-3" x="31.97" y="102.43" width="4.27" height="4.27"/>
  <polygon class="cls-2" points="58.81 72.53 59.74 72.53 59.74 68.26 58.81 68.26 57.59 68.26 55.47 68.26 55.47 72.53 57.59 72.53 58.81 72.53"/>
  <polygon class="cls-11" points="31.97 42.64 31.97 46.91 36.24 46.91 36.24 42.64 36.24 38.36 36.24 34.09 31.97 34.09 31.97 38.36 31.97 42.64"/>
  <polygon class="cls-10" points="36.24 51.18 36.24 46.91 31.97 46.91 31.97 42.64 31.97 38.36 31.97 34.09 27.7 34.09 27.7 38.36 27.7 42.64 27.7 46.91 27.7 51.18 31.97 51.18 31.97 55.45 36.24 55.45 36.24 51.18"/>
  <polygon class="cls-8" points="31.97 29.82 31.97 34.09 36.24 34.09 36.24 38.36 36.24 42.64 36.24 46.91 36.24 51.18 40.51 51.18 40.51 46.91 40.51 42.64 44.78 42.64 44.78 38.36 44.78 34.09 40.51 34.09 40.51 29.82 36.24 29.82 31.97 29.82"/>
  <rect class="cls-1" x="27.7" y="51.18" width="4.27" height="4.27"/>
  <polygon class="cls-1" points="27.7 42.64 27.7 38.36 27.7 34.09 23.43 34.09 23.43 38.36 23.43 42.64 23.43 46.91 23.43 51.18 27.7 51.18 27.7 46.91 27.7 42.64"/>
  <rect class="cls-1" x="27.7" y="29.82" width="4.27" height="4.27"/>
</svg>